<svg width="20" height="17" viewBox="0 0 20 17" fill="none" xmlns="http://www.w3.org/2000/svg">
<path d="M10.2439 0.921387C10.778 0.924327 12.1143 0.937247 13.5341 0.994117L14.0375 1.01607C15.467 1.08375 16.8953 1.19937 17.6037 1.39689C18.5486 1.66234 19.2913 2.43689 19.5423 3.41871C19.942 4.9778 19.992 8.02079 19.9982 8.75719L19.9991 8.90979V8.92049C19.9991 8.92049 19.9991 8.92419 19.9991 8.93129L19.9982 9.08389C19.992 9.82029 19.942 12.8633 19.5423 14.4224C19.2878 15.4078 18.5451 16.1824 17.6037 16.4442C16.8953 16.6417 15.467 16.7573 14.0375 16.825L13.5341 16.8469C12.1143 16.9038 10.778 16.9167 10.2439 16.9197L10.0095 16.9205H9.9991C9.9991 16.9205 9.9956 16.9205 9.9887 16.9205L9.7545 16.9197C8.6241 16.9135 3.89772 16.8624 2.39451 16.4442C1.4496 16.1787 0.70692 15.4042 0.45587 14.4224C0.0561999 12.8633 0.00624 9.82029 0 9.08389V8.75719C0.00624 8.02079 0.0561999 4.9778 0.45587 3.41871C0.7104 2.43325 1.45308 1.65871 2.39451 1.39689C3.89772 0.978617 8.6241 0.927607 9.7545 0.921387H10.2439ZM7.99911 5.42053V12.4205L13.9991 8.92049L7.99911 5.42053Z" fill="#FF0000"/>
</svg>
